# xmcd
#
# Track frame offsets:
#	150
#	13786
#	25785
#	40885
#	56384
#	67527
#	80272
#	94332
#	110537
#	123358
#	143177
#	160107
#	169654
#	186842
#	202527
#	216539
#	230008
#	243192
#
# Disc length: 3391 seconds
#
# Revision: 1
# Processed by: cddbd v1.5.2PL0 Copyright (c) Steve Scherf et al.
# Submitted via: audiograbber 1.83.01
#
DISCID=e60d3d12
DTITLE=Best Of Country Songs - CD 1
DYEAR=2011
DGENRE=Country
TTITLE0=Glenn Campbell - Rhinestone Cowboy
TTITLE1=Don Williams - Tulsa Time
TTITLE2=Dolly Parton - I Will Always Love You
TTITLE3=Boxcar Willie - Forty Nine Nights
TTITLE4=Waylon Jennings - Big Mamou
TTITLE5=Billy Joe Spears - '57 Chevrolet
TTITLE6=Charly Pride - What's Another Year
TTITLE7=Freddy Fender - Another Shot Of Ambition
TTITLE8=Carry and Ron - Burning Eyes
TTITLE9=The Mavericks - Dance The Night Away
TTITLE10=David Allan Coe - Desperate Man
TTITLE11=Mickey Gilley - Lotta Lovin'
TTITLE12=Emmilou Harris and Carl Perkins - Gone, Gone, Gone
TTITLE13=Bill Davis - If You Can't Be Good
TTITLE14=Juice Newton - Listen To The Radio
TTITLE15=Patsy Cline - Life's A Railway To Heaven
TTITLE16=Bellamy Brothers - Get Into Reaggae Cowboy
TTITLE17=James Darren - Help Me Make It Through The Night
EXTD=
EXTT0=
EXTT1=
EXTT2=
EXTT3=
EXTT4=
EXTT5=
EXTT6=
EXTT7=
EXTT8=
EXTT9=
EXTT10=
EXTT11=
EXTT12=
EXTT13=
EXTT14=
EXTT15=
EXTT16=
EXTT17=
PLAYORDER=
